<svg width="1363" height="167" viewBox="0 0 1363 167" fill="none" xmlns="http://www.w3.org/2000/svg">
<rect width="1363" height="167" rx="15" fill="#302B4F"/>
<path d="M0 15C0 6.71573 6.71573 0 15 0H37V167H15C6.71573 167 0 160.284 0 152V15Z" fill="#8A67F4"/>
<path d="M101.152 44.9375V62H97.6484V44.9375H101.152ZM106.402 44.9375V47.6914H92.4805V44.9375H106.402ZM110.75 52.0859V62H107.375V49.3203H110.551L110.75 52.0859ZM114.57 49.2383L114.512 52.3672C114.348 52.3438 114.148 52.3242 113.914 52.3086C113.688 52.2852 113.48 52.2734 113.293 52.2734C112.816 52.2734 112.402 52.3359 112.051 52.4609C111.707 52.5781 111.418 52.7539 111.184 52.9883C110.957 53.2227 110.785 53.5078 110.668 53.8438C110.559 54.1797 110.496 54.5625 110.48 54.9922L109.801 54.7812C109.801 53.9609 109.883 53.207 110.047 52.5195C110.211 51.8242 110.449 51.2188 110.762 50.7031C111.082 50.1875 111.473 49.7891 111.934 49.5078C112.395 49.2266 112.922 49.0859 113.516 49.0859C113.703 49.0859 113.895 49.1016 114.09 49.1328C114.285 49.1562 114.445 49.1914 114.57 49.2383ZM122.609 59.1406V53.4922C122.609 53.0859 122.543 52.7383 122.41 52.4492C122.277 52.1523 122.07 51.9219 121.789 51.7578C121.516 51.5938 121.16 51.5117 120.723 51.5117C120.348 51.5117 120.023 51.5781 119.75 51.7109C119.477 51.8359 119.266 52.0195 119.117 52.2617C118.969 52.4961 118.895 52.7734 118.895 53.0938H115.52C115.52 52.5547 115.645 52.043 115.895 51.5586C116.145 51.0742 116.508 50.6484 116.984 50.2812C117.461 49.9062 118.027 49.6133 118.684 49.4023C119.348 49.1914 120.09 49.0859 120.91 49.0859C121.895 49.0859 122.77 49.25 123.535 49.5781C124.301 49.9062 124.902 50.3984 125.34 51.0547C125.785 51.7109 126.008 52.5312 126.008 53.5156V58.9414C126.008 59.6367 126.051 60.207 126.137 60.6523C126.223 61.0898 126.348 61.4727 126.512 61.8008V62H123.102C122.938 61.6562 122.812 61.2266 122.727 60.7109C122.648 60.1875 122.609 59.6641 122.609 59.1406ZM123.055 54.2773L123.078 56.1875H121.191C120.746 56.1875 120.359 56.2383 120.031 56.3398C119.703 56.4414 119.434 56.5859 119.223 56.7734C119.012 56.9531 118.855 57.1641 118.754 57.4062C118.66 57.6484 118.613 57.9141 118.613 58.2031C118.613 58.4922 118.68 58.7539 118.812 58.9883C118.945 59.2148 119.137 59.3945 119.387 59.5273C119.637 59.6523 119.93 59.7148 120.266 59.7148C120.773 59.7148 121.215 59.6133 121.59 59.4102C121.965 59.207 122.254 58.957 122.457 58.6602C122.668 58.3633 122.777 58.082 122.785 57.8164L123.676 59.2461C123.551 59.5664 123.379 59.8984 123.16 60.2422C122.949 60.5859 122.68 60.9102 122.352 61.2148C122.023 61.5117 121.629 61.7578 121.168 61.9531C120.707 62.1406 120.16 62.2344 119.527 62.2344C118.723 62.2344 117.992 62.0742 117.336 61.7539C116.688 61.4258 116.172 60.9766 115.789 60.4062C115.414 59.8281 115.227 59.1719 115.227 58.4375C115.227 57.7734 115.352 57.1836 115.602 56.668C115.852 56.1523 116.219 55.7188 116.703 55.3672C117.195 55.0078 117.809 54.7383 118.543 54.5586C119.277 54.3711 120.129 54.2773 121.098 54.2773H123.055ZM133.848 59.5977C134.262 59.5977 134.629 59.5195 134.949 59.3633C135.27 59.1992 135.52 58.9727 135.699 58.6836C135.887 58.3867 135.984 58.0391 135.992 57.6406H139.168C139.16 58.5312 138.922 59.3242 138.453 60.0195C137.984 60.707 137.355 61.25 136.566 61.6484C135.777 62.0391 134.895 62.2344 133.918 62.2344C132.934 62.2344 132.074 62.0703 131.34 61.7422C130.613 61.4141 130.008 60.9609 129.523 60.3828C129.039 59.7969 128.676 59.1172 128.434 58.3438C128.191 57.5625 128.07 56.7266 128.07 55.8359V55.4961C128.07 54.5977 128.191 53.7617 128.434 52.9883C128.676 52.207 129.039 51.5273 129.523 50.9492C130.008 50.3633 130.613 49.9062 131.34 49.5781C132.066 49.25 132.918 49.0859 133.895 49.0859C134.934 49.0859 135.844 49.2852 136.625 49.6836C137.414 50.082 138.031 50.6523 138.477 51.3945C138.93 52.1289 139.16 53 139.168 54.0078H135.992C135.984 53.5859 135.895 53.2031 135.723 52.8594C135.559 52.5156 135.316 52.2422 134.996 52.0391C134.684 51.8281 134.297 51.7227 133.836 51.7227C133.344 51.7227 132.941 51.8281 132.629 52.0391C132.316 52.2422 132.074 52.5234 131.902 52.8828C131.73 53.2344 131.609 53.6367 131.539 54.0898C131.477 54.5352 131.445 55.0039 131.445 55.4961V55.8359C131.445 56.3281 131.477 56.8008 131.539 57.2539C131.602 57.707 131.719 58.1094 131.891 58.4609C132.07 58.8125 132.316 59.0898 132.629 59.293C132.941 59.4961 133.348 59.5977 133.848 59.5977ZM146.961 62.2344C145.977 62.2344 145.094 62.0781 144.312 61.7656C143.531 61.4453 142.867 61.0039 142.32 60.4414C141.781 59.8789 141.367 59.2266 141.078 58.4844C140.789 57.7344 140.645 56.9375 140.645 56.0938V55.625C140.645 54.6641 140.781 53.7852 141.055 52.9883C141.328 52.1914 141.719 51.5 142.227 50.9141C142.742 50.3281 143.367 49.8789 144.102 49.5664C144.836 49.2461 145.664 49.0859 146.586 49.0859C147.484 49.0859 148.281 49.2344 148.977 49.5312C149.672 49.8281 150.254 50.25 150.723 50.7969C151.199 51.3438 151.559 52 151.801 52.7656C152.043 53.5234 152.164 54.3672 152.164 55.2969V56.7031H142.086V54.4531H148.848V54.1953C148.848 53.7266 148.762 53.3086 148.59 52.9414C148.426 52.5664 148.176 52.2695 147.84 52.0508C147.504 51.832 147.074 51.7227 146.551 51.7227C146.105 51.7227 145.723 51.8203 145.402 52.0156C145.082 52.2109 144.82 52.4844 144.617 52.8359C144.422 53.1875 144.273 53.6016 144.172 54.0781C144.078 54.5469 144.031 55.0625 144.031 55.625V56.0938C144.031 56.6016 144.102 57.0703 144.242 57.5C144.391 57.9297 144.598 58.3008 144.863 58.6133C145.137 58.9258 145.465 59.168 145.848 59.3398C146.238 59.5117 146.68 59.5977 147.172 59.5977C147.781 59.5977 148.348 59.4805 148.871 59.2461C149.402 59.0039 149.859 58.6406 150.242 58.1562L151.883 59.9375C151.617 60.3203 151.254 60.6875 150.793 61.0391C150.34 61.3906 149.793 61.6797 149.152 61.9062C148.512 62.125 147.781 62.2344 146.961 62.2344Z" fill="white"/>
<path d="M102.151 86.0078V118H94.439V86.0078H102.151ZM114.588 99.3232V105.256H99.9541V99.3232H114.588ZM115.84 86.0078V91.9624H99.9541V86.0078H115.84ZM132.1 112.221V94.2256H139.527V118H132.583L132.1 112.221ZM132.803 107.387L134.737 107.343C134.737 108.94 134.546 110.419 134.166 111.782C133.785 113.129 133.221 114.301 132.474 115.297C131.741 116.293 130.833 117.07 129.749 117.626C128.68 118.168 127.442 118.439 126.036 118.439C124.864 118.439 123.787 118.278 122.806 117.956C121.839 117.619 121.004 117.099 120.301 116.396C119.598 115.678 119.048 114.763 118.653 113.649C118.272 112.521 118.082 111.174 118.082 109.606V94.2256H125.486V109.65C125.486 110.178 125.552 110.632 125.684 111.013C125.816 111.394 126.006 111.716 126.255 111.979C126.504 112.229 126.812 112.419 127.178 112.551C127.559 112.668 127.991 112.727 128.475 112.727C129.588 112.727 130.459 112.492 131.089 112.023C131.719 111.555 132.159 110.917 132.408 110.112C132.671 109.306 132.803 108.398 132.803 107.387ZM156.138 94.2256V99.3672H141.812V94.2256H156.138ZM144.822 88.3149H152.227V110.244C152.227 110.874 152.3 111.364 152.447 111.716C152.593 112.053 152.842 112.294 153.194 112.441C153.56 112.573 154.043 112.639 154.644 112.639C155.069 112.639 155.42 112.631 155.699 112.617C155.977 112.587 156.241 112.551 156.49 112.507V117.802C155.86 118.007 155.201 118.161 154.512 118.264C153.824 118.381 153.091 118.439 152.315 118.439C150.733 118.439 149.378 118.19 148.25 117.692C147.137 117.194 146.287 116.411 145.701 115.341C145.115 114.272 144.822 112.88 144.822 111.167V88.3149ZM172.969 112.221V94.2256H180.396V118H173.453L172.969 112.221ZM173.672 107.387L175.606 107.343C175.606 108.94 175.416 110.419 175.035 111.782C174.654 113.129 174.09 114.301 173.343 115.297C172.61 116.293 171.702 117.07 170.618 117.626C169.549 118.168 168.311 118.439 166.905 118.439C165.733 118.439 164.656 118.278 163.675 117.956C162.708 117.619 161.873 117.099 161.17 116.396C160.467 115.678 159.917 114.763 159.522 113.649C159.141 112.521 158.951 111.174 158.951 109.606V94.2256H166.355V109.65C166.355 110.178 166.421 110.632 166.553 111.013C166.685 111.394 166.875 111.716 167.125 111.979C167.374 112.229 167.681 112.419 168.047 112.551C168.428 112.668 168.86 112.727 169.344 112.727C170.457 112.727 171.329 112.492 171.958 112.023C172.588 111.555 173.028 110.917 173.277 110.112C173.541 109.306 173.672 108.398 173.672 107.387ZM191.954 100.114V118H184.549V94.2256H191.47L191.954 100.114ZM198.985 94.0498L198.853 100.927C198.56 100.898 198.165 100.861 197.667 100.817C197.168 100.773 196.751 100.751 196.414 100.751C195.55 100.751 194.803 100.854 194.173 101.059C193.558 101.25 193.045 101.542 192.635 101.938C192.239 102.319 191.946 102.802 191.756 103.388C191.58 103.974 191.5 104.655 191.514 105.432L190.174 104.553C190.174 102.956 190.328 101.506 190.635 100.202C190.958 98.8838 191.412 97.7485 191.998 96.7964C192.583 95.8296 193.294 95.0898 194.129 94.5771C194.964 94.0498 195.901 93.7861 196.941 93.7861C197.308 93.7861 197.667 93.8081 198.018 93.8521C198.384 93.896 198.707 93.9619 198.985 94.0498ZM212.608 118.439C210.674 118.439 208.946 118.139 207.422 117.539C205.899 116.923 204.61 116.081 203.555 115.012C202.515 113.942 201.717 112.712 201.16 111.32C200.618 109.929 200.347 108.457 200.347 106.904V106.069C200.347 104.326 200.589 102.714 201.072 101.235C201.556 99.7407 202.273 98.437 203.226 97.3237C204.178 96.2104 205.372 95.3462 206.807 94.731C208.243 94.1011 209.913 93.7861 211.817 93.7861C213.501 93.7861 215.01 94.0571 216.343 94.5991C217.676 95.1411 218.804 95.9175 219.727 96.9282C220.665 97.939 221.375 99.1621 221.858 100.598C222.356 102.033 222.605 103.645 222.605 105.432V108.442H203.182V103.806H215.376V103.234C215.391 102.443 215.252 101.77 214.959 101.213C214.681 100.656 214.271 100.231 213.729 99.9385C213.187 99.6455 212.527 99.499 211.751 99.499C210.945 99.499 210.279 99.6748 209.751 100.026C209.239 100.378 208.836 100.861 208.543 101.477C208.265 102.077 208.067 102.773 207.95 103.564C207.833 104.355 207.774 105.19 207.774 106.069V106.904C207.774 107.783 207.891 108.581 208.125 109.299C208.375 110.017 208.726 110.632 209.18 111.145C209.649 111.643 210.206 112.031 210.85 112.309C211.509 112.587 212.256 112.727 213.091 112.727C214.102 112.727 215.098 112.536 216.08 112.155C217.061 111.774 217.903 111.145 218.606 110.266L221.968 114.265C221.485 114.953 220.796 115.62 219.903 116.264C219.024 116.909 217.969 117.436 216.739 117.846C215.508 118.242 214.131 118.439 212.608 118.439ZM244.556 115.1L250.928 86.0078H254.729L256.795 88.4907L250.005 118H245.809L244.556 115.1ZM242.864 86.0078L248.248 115.319L246.863 118H242.007L235.218 86.0078H242.864ZM260.289 115.166L265.628 86.0078H273.252L266.463 118H261.629L260.289 115.166ZM257.476 86.0078L264.002 115.275L262.684 118H258.487L251.543 88.4468L253.697 86.0078H257.476ZM274.307 106.354V105.893C274.307 104.15 274.556 102.546 275.054 101.081C275.552 99.6016 276.285 98.3198 277.251 97.2358C278.218 96.1519 279.412 95.3096 280.833 94.709C282.254 94.0938 283.895 93.7861 285.755 93.7861C287.63 93.7861 289.278 94.0938 290.699 94.709C292.134 95.3096 293.335 96.1519 294.302 97.2358C295.269 98.3198 296.001 99.6016 296.5 101.081C296.998 102.546 297.247 104.15 297.247 105.893V106.354C297.247 108.083 296.998 109.687 296.5 111.167C296.001 112.631 295.269 113.913 294.302 115.012C293.335 116.096 292.142 116.938 290.721 117.539C289.3 118.139 287.659 118.439 285.799 118.439C283.938 118.439 282.291 118.139 280.855 117.539C279.419 116.938 278.218 116.096 277.251 115.012C276.285 113.913 275.552 112.631 275.054 111.167C274.556 109.687 274.307 108.083 274.307 106.354ZM281.712 105.893V106.354C281.712 107.248 281.778 108.083 281.91 108.859C282.042 109.636 282.261 110.317 282.569 110.903C282.876 111.474 283.294 111.921 283.821 112.243C284.349 112.565 285.008 112.727 285.799 112.727C286.575 112.727 287.22 112.565 287.732 112.243C288.26 111.921 288.677 111.474 288.985 110.903C289.292 110.317 289.512 109.636 289.644 108.859C289.776 108.083 289.842 107.248 289.842 106.354V105.893C289.842 105.029 289.776 104.216 289.644 103.454C289.512 102.678 289.292 101.997 288.985 101.411C288.677 100.81 288.26 100.341 287.732 100.004C287.205 99.6675 286.546 99.499 285.755 99.499C284.979 99.499 284.327 99.6675 283.799 100.004C283.287 100.341 282.876 100.81 282.569 101.411C282.261 101.997 282.042 102.678 281.91 103.454C281.778 104.216 281.712 105.029 281.712 105.893ZM308.013 100.114V118H300.608V94.2256H307.53L308.013 100.114ZM315.044 94.0498L314.913 100.927C314.62 100.898 314.224 100.861 313.726 100.817C313.228 100.773 312.811 100.751 312.474 100.751C311.609 100.751 310.862 100.854 310.232 101.059C309.617 101.25 309.104 101.542 308.694 101.938C308.299 102.319 308.006 102.802 307.815 103.388C307.64 103.974 307.559 104.655 307.574 105.432L306.233 104.553C306.233 102.956 306.387 101.506 306.695 100.202C307.017 98.8838 307.471 97.7485 308.057 96.7964C308.643 95.8296 309.354 95.0898 310.188 94.5771C311.023 94.0498 311.961 93.7861 313.001 93.7861C313.367 93.7861 313.726 93.8081 314.078 93.8521C314.444 93.896 314.766 93.9619 315.044 94.0498ZM325.064 84.228V118H317.659V84.228H325.064ZM340.269 94.2256L329.942 106.333L324.537 111.738L321.307 107.036L325.811 101.169L331.392 94.2256H340.269ZM332.337 118L325.987 107.167L331.458 103.278L340.818 118H332.337Z" fill="#8A67F4"/>
<path d="M1363 15C1363 6.71573 1356.28 0 1348 0H1134V167H1348C1356.28 167 1363 160.284 1363 152V15Z" fill="#463F71"/>
<path d="M1240.92 51.9L1247.65 44L1254.38 51.9V123H1240.92V51.9Z" stroke="white" stroke-width="4" stroke-linejoin="round"/>
<path d="M1227.46 75.6L1240.92 59.8V123H1227.46V75.6ZM1214 105.225L1227.46 91.4V123H1214V105.225ZM1254.38 59.8L1267.84 75.6V123H1254.38V59.8ZM1267.84 91.4L1281.3 104.237V123H1267.84V91.4Z" stroke="white" stroke-width="4" stroke-linecap="round" stroke-linejoin="round"/>
</svg>
