<svg width="1363" height="301" viewBox="0 0 1363 301" fill="none" xmlns="http://www.w3.org/2000/svg">
<g clip-path="url(#clip0_3_60)">
<rect width="1363" height="301" rx="15" fill="#302B4F"/>
<path d="M0 15C0 6.71573 6.71573 0 15 0H37V301H15C6.71573 301 0 294.284 0 286V15Z" fill="#463F71"/>
<path d="M113.914 104.898V144H104.488V104.898H113.914ZM125.677 104.898V112.176H92.9937V104.898H125.677ZM136.607 122.14V144H127.557V114.942H136.016L136.607 122.14ZM145.201 114.728L145.04 123.133C144.681 123.097 144.198 123.053 143.589 122.999C142.981 122.945 142.47 122.918 142.059 122.918C141.002 122.918 140.089 123.044 139.319 123.294C138.567 123.527 137.941 123.885 137.439 124.369C136.956 124.834 136.598 125.425 136.365 126.141C136.15 126.857 136.052 127.69 136.07 128.639L134.432 127.564C134.432 125.613 134.62 123.84 134.996 122.247C135.389 120.636 135.944 119.248 136.661 118.084C137.377 116.903 138.245 115.999 139.266 115.372C140.286 114.728 141.432 114.405 142.703 114.405C143.151 114.405 143.589 114.432 144.019 114.486C144.467 114.54 144.861 114.62 145.201 114.728ZM162.603 136.695V124.718C162.603 123.894 162.487 123.187 162.254 122.596C162.021 122.005 161.654 121.549 161.153 121.227C160.652 120.886 159.98 120.716 159.139 120.716C158.458 120.716 157.876 120.833 157.393 121.065C156.91 121.298 156.543 121.647 156.292 122.113C156.041 122.578 155.916 123.169 155.916 123.885H146.866C146.866 122.542 147.161 121.298 147.752 120.152C148.361 118.989 149.22 117.977 150.33 117.118C151.458 116.258 152.801 115.596 154.358 115.13C155.934 114.647 157.688 114.405 159.622 114.405C161.932 114.405 163.991 114.79 165.799 115.56C167.625 116.33 169.066 117.485 170.123 119.024C171.179 120.546 171.707 122.462 171.707 124.771V136.668C171.707 138.566 171.814 140.007 172.029 140.992C172.244 141.959 172.549 142.809 172.942 143.543V144H163.865C163.436 143.105 163.113 142.013 162.898 140.724C162.701 139.417 162.603 138.074 162.603 136.695ZM163.704 126.249L163.758 131.083H159.756C158.915 131.083 158.199 131.199 157.608 131.432C157.035 131.664 156.569 131.987 156.211 132.398C155.871 132.792 155.621 133.24 155.459 133.741C155.316 134.243 155.245 134.771 155.245 135.326C155.245 135.863 155.37 136.346 155.621 136.776C155.889 137.188 156.247 137.51 156.695 137.743C157.142 137.975 157.644 138.092 158.199 138.092C159.201 138.092 160.052 137.904 160.75 137.528C161.466 137.134 162.012 136.66 162.388 136.104C162.764 135.549 162.952 135.03 162.952 134.547L164.939 138.253C164.581 138.969 164.17 139.694 163.704 140.428C163.257 141.162 162.693 141.843 162.012 142.469C161.35 143.078 160.535 143.579 159.568 143.973C158.602 144.349 157.429 144.537 156.05 144.537C154.26 144.537 152.613 144.17 151.109 143.436C149.623 142.702 148.432 141.681 147.537 140.375C146.642 139.05 146.194 137.528 146.194 135.809C146.194 134.305 146.463 132.962 147 131.781C147.555 130.599 148.388 129.597 149.498 128.773C150.608 127.949 152.022 127.323 153.741 126.893C155.459 126.463 157.483 126.249 159.81 126.249H163.704ZM189.002 137.555C189.843 137.555 190.56 137.403 191.15 137.098C191.759 136.776 192.216 136.328 192.52 135.755C192.842 135.165 192.994 134.457 192.977 133.634H201.49C201.508 135.818 200.971 137.734 199.878 139.381C198.804 141.01 197.336 142.281 195.474 143.194C193.63 144.09 191.544 144.537 189.217 144.537C186.943 144.537 184.956 144.17 183.255 143.436C181.554 142.684 180.131 141.646 178.985 140.321C177.857 138.978 177.007 137.411 176.434 135.621C175.879 133.831 175.601 131.888 175.601 129.793V129.176C175.601 127.081 175.879 125.139 176.434 123.348C177.007 121.54 177.857 119.973 178.985 118.648C180.131 117.306 181.545 116.267 183.228 115.533C184.929 114.781 186.907 114.405 189.163 114.405C191.58 114.405 193.711 114.862 195.555 115.775C197.417 116.688 198.876 118.013 199.932 119.75C200.988 121.486 201.508 123.59 201.49 126.061H192.977C192.994 125.183 192.86 124.396 192.574 123.697C192.287 122.999 191.84 122.444 191.231 122.032C190.64 121.603 189.879 121.388 188.948 121.388C188.017 121.388 187.265 121.594 186.692 122.005C186.119 122.417 185.681 122.99 185.376 123.724C185.09 124.44 184.893 125.264 184.786 126.195C184.696 127.126 184.651 128.119 184.651 129.176V129.793C184.651 130.868 184.696 131.879 184.786 132.828C184.893 133.759 185.099 134.583 185.403 135.299C185.708 135.997 186.146 136.552 186.719 136.964C187.292 137.358 188.053 137.555 189.002 137.555ZM219.429 144.537C217.066 144.537 214.953 144.17 213.091 143.436C211.229 142.684 209.654 141.655 208.365 140.348C207.094 139.041 206.118 137.537 205.438 135.836C204.775 134.135 204.444 132.336 204.444 130.438V129.417C204.444 127.287 204.739 125.318 205.33 123.509C205.921 121.683 206.798 120.09 207.962 118.729C209.126 117.368 210.585 116.312 212.339 115.56C214.094 114.79 216.135 114.405 218.462 114.405C220.521 114.405 222.365 114.736 223.995 115.399C225.624 116.061 227.002 117.01 228.13 118.246C229.276 119.481 230.145 120.976 230.735 122.73C231.344 124.485 231.648 126.454 231.648 128.639V132.318H207.908V126.651H222.813V125.953C222.831 124.986 222.661 124.163 222.303 123.482C221.963 122.802 221.461 122.283 220.799 121.925C220.136 121.567 219.331 121.388 218.382 121.388C217.397 121.388 216.583 121.603 215.938 122.032C215.311 122.462 214.819 123.053 214.461 123.805C214.121 124.539 213.879 125.389 213.736 126.356C213.593 127.323 213.521 128.343 213.521 129.417V130.438C213.521 131.512 213.664 132.488 213.951 133.365C214.255 134.243 214.685 134.994 215.24 135.621C215.813 136.23 216.493 136.704 217.281 137.044C218.086 137.385 219 137.555 220.02 137.555C221.255 137.555 222.473 137.322 223.672 136.856C224.872 136.391 225.901 135.621 226.761 134.547L230.87 139.435C230.279 140.276 229.437 141.091 228.345 141.878C227.271 142.666 225.982 143.311 224.478 143.812C222.974 144.295 221.291 144.537 219.429 144.537Z" fill="#8A67F4"/>
<path d="M110.816 65.2515V69.2505H97.8276V65.2515H110.816ZM99.3486 55.1172V80H94.2217V55.1172H99.3486ZM114.473 55.1172V80H109.363V55.1172H114.473ZM117.84 70.9424V70.5835C117.84 69.2277 118.034 67.9801 118.421 66.8408C118.808 65.6901 119.372 64.6932 120.113 63.8501C120.853 63.007 121.765 62.3519 122.847 61.8848C123.93 61.4062 125.171 61.167 126.573 61.167C127.974 61.167 129.222 61.4062 130.315 61.8848C131.409 62.3519 132.326 63.007 133.067 63.8501C133.819 64.6932 134.389 65.6901 134.776 66.8408C135.163 67.9801 135.357 69.2277 135.357 70.5835V70.9424C135.357 72.2868 135.163 73.5343 134.776 74.6851C134.389 75.8244 133.819 76.8213 133.067 77.6758C132.326 78.5189 131.415 79.174 130.333 79.6411C129.25 80.1082 128.008 80.3418 126.607 80.3418C125.206 80.3418 123.958 80.1082 122.864 79.6411C121.782 79.174 120.865 78.5189 120.113 77.6758C119.372 76.8213 118.808 75.8244 118.421 74.6851C118.034 73.5343 117.84 72.2868 117.84 70.9424ZM122.762 70.5835V70.9424C122.762 71.7171 122.83 72.4406 122.967 73.1128C123.104 73.785 123.32 74.3774 123.616 74.8901C123.924 75.3914 124.323 75.7845 124.812 76.0693C125.302 76.3542 125.901 76.4966 126.607 76.4966C127.291 76.4966 127.877 76.3542 128.367 76.0693C128.857 75.7845 129.25 75.3914 129.546 74.8901C129.843 74.3774 130.059 73.785 130.196 73.1128C130.344 72.4406 130.418 71.7171 130.418 70.9424V70.5835C130.418 69.8315 130.344 69.1252 130.196 68.4644C130.059 67.7922 129.837 67.1997 129.529 66.687C129.233 66.1629 128.84 65.7528 128.35 65.4565C127.86 65.1603 127.268 65.0122 126.573 65.0122C125.878 65.0122 125.285 65.1603 124.795 65.4565C124.317 65.7528 123.924 66.1629 123.616 66.687C123.32 67.1997 123.104 67.7922 122.967 68.4644C122.83 69.1252 122.762 69.8315 122.762 70.5835ZM149.319 75.5737V61.5088H154.241V80H149.61L149.319 75.5737ZM149.866 71.7798L151.319 71.7456C151.319 72.9761 151.176 74.1211 150.892 75.1807C150.607 76.2288 150.18 77.1403 149.61 77.915C149.04 78.6784 148.322 79.2765 147.457 79.7095C146.591 80.131 145.571 80.3418 144.397 80.3418C143.497 80.3418 142.666 80.2165 141.902 79.9658C141.15 79.7038 140.501 79.2993 139.954 78.7524C139.419 78.1942 138.997 77.4821 138.689 76.6162C138.393 75.7389 138.245 74.6851 138.245 73.4546V61.5088H143.167V73.4888C143.167 74.0356 143.23 74.4971 143.355 74.873C143.492 75.249 143.68 75.5566 143.919 75.7959C144.158 76.0352 144.437 76.2061 144.756 76.3086C145.087 76.4111 145.451 76.4624 145.85 76.4624C146.864 76.4624 147.662 76.2573 148.243 75.8472C148.835 75.437 149.251 74.8787 149.49 74.1724C149.741 73.4546 149.866 72.6571 149.866 71.7798ZM167.999 74.8901C167.999 74.5369 167.896 74.2179 167.691 73.9331C167.486 73.6483 167.104 73.3862 166.546 73.147C165.999 72.8963 165.207 72.6685 164.17 72.4634C163.236 72.2583 162.365 72.002 161.556 71.6943C160.758 71.3753 160.063 70.9937 159.471 70.5493C158.89 70.105 158.434 69.5809 158.104 68.9771C157.773 68.3618 157.608 67.6611 157.608 66.875C157.608 66.1003 157.773 65.3711 158.104 64.6875C158.445 64.0039 158.93 63.4001 159.556 62.876C160.194 62.3405 160.969 61.9246 161.88 61.6284C162.803 61.3208 163.84 61.167 164.991 61.167C166.597 61.167 167.976 61.4233 169.126 61.936C170.289 62.4487 171.177 63.1551 171.792 64.0552C172.419 64.9438 172.732 65.9578 172.732 67.0972H167.811C167.811 66.6187 167.708 66.1914 167.503 65.8154C167.309 65.4281 167.002 65.1261 166.58 64.9097C166.17 64.6818 165.634 64.5679 164.974 64.5679C164.427 64.5679 163.954 64.6647 163.555 64.8584C163.156 65.0407 162.849 65.2913 162.632 65.6104C162.427 65.918 162.325 66.2598 162.325 66.6357C162.325 66.9206 162.382 67.1769 162.496 67.4048C162.621 67.6213 162.82 67.8206 163.094 68.0029C163.367 68.1852 163.72 68.3561 164.153 68.5156C164.598 68.6637 165.145 68.8005 165.794 68.9258C167.127 69.1992 168.318 69.5581 169.366 70.0024C170.414 70.4354 171.246 71.0278 171.861 71.7798C172.476 72.5203 172.784 73.4945 172.784 74.7021C172.784 75.5225 172.601 76.2744 172.237 76.958C171.872 77.6416 171.348 78.2397 170.665 78.7524C169.981 79.2537 169.161 79.6468 168.204 79.9316C167.258 80.2051 166.193 80.3418 165.008 80.3418C163.287 80.3418 161.829 80.0342 160.633 79.4189C159.448 78.8037 158.548 78.0233 157.933 77.0776C157.329 76.1206 157.027 75.1408 157.027 74.1382H161.692C161.715 74.8104 161.886 75.3516 162.205 75.7617C162.535 76.1719 162.951 76.4681 163.453 76.6504C163.965 76.8327 164.518 76.9238 165.11 76.9238C165.748 76.9238 166.278 76.8384 166.7 76.6675C167.121 76.4852 167.44 76.2459 167.657 75.9497C167.885 75.6421 167.999 75.2889 167.999 74.8901ZM185.96 75.8301V67.5928C185.96 67.0003 185.863 66.4933 185.669 66.0718C185.476 65.6388 185.174 65.3027 184.764 65.0635C184.365 64.8242 183.847 64.7046 183.208 64.7046C182.662 64.7046 182.189 64.8014 181.79 64.9951C181.391 65.1774 181.084 65.4451 180.867 65.7983C180.651 66.1401 180.542 66.5446 180.542 67.0117H175.621C175.621 66.2256 175.803 65.4793 176.167 64.7729C176.532 64.0666 177.062 63.4456 177.757 62.9102C178.452 62.3633 179.278 61.936 180.235 61.6284C181.203 61.3208 182.286 61.167 183.482 61.167C184.917 61.167 186.194 61.4062 187.31 61.8848C188.427 62.3633 189.304 63.0811 189.942 64.0381C190.591 64.9951 190.916 66.1914 190.916 67.627V75.5396C190.916 76.5535 190.979 77.3853 191.104 78.0347C191.229 78.6727 191.412 79.231 191.651 79.7095V80H186.678C186.438 79.4987 186.256 78.8721 186.131 78.1201C186.017 77.3568 185.96 76.5934 185.96 75.8301ZM186.609 68.7378L186.644 71.5234H183.892C183.243 71.5234 182.679 71.5975 182.2 71.7456C181.722 71.8937 181.329 72.1045 181.021 72.3779C180.713 72.64 180.486 72.9476 180.337 73.3008C180.201 73.654 180.132 74.0413 180.132 74.4629C180.132 74.8844 180.229 75.2661 180.423 75.6079C180.617 75.9383 180.896 76.2004 181.26 76.394C181.625 76.5763 182.052 76.6675 182.542 76.6675C183.283 76.6675 183.926 76.5194 184.473 76.2231C185.02 75.9269 185.442 75.5623 185.738 75.1294C186.045 74.6965 186.205 74.2863 186.216 73.8989L187.515 75.9839C187.333 76.451 187.082 76.9352 186.763 77.4365C186.456 77.9378 186.062 78.4106 185.584 78.855C185.105 79.2879 184.53 79.6468 183.858 79.9316C183.186 80.2051 182.388 80.3418 181.465 80.3418C180.292 80.3418 179.227 80.1082 178.27 79.6411C177.324 79.1626 176.572 78.5075 176.014 77.6758C175.467 76.8327 175.193 75.8757 175.193 74.8047C175.193 73.8363 175.376 72.9761 175.74 72.2241C176.105 71.4722 176.64 70.8398 177.347 70.3271C178.064 69.8031 178.959 69.41 180.03 69.1479C181.101 68.8745 182.343 68.7378 183.755 68.7378H186.609ZM199.632 65.3369V80H194.693V61.5088H199.324L199.632 65.3369ZM198.948 70.105H197.581C197.581 68.8175 197.735 67.6326 198.042 66.5503C198.361 65.4565 198.823 64.5109 199.427 63.7134C200.042 62.9045 200.8 62.2778 201.7 61.8335C202.6 61.3892 203.642 61.167 204.827 61.167C205.647 61.167 206.399 61.2923 207.083 61.543C207.767 61.7822 208.353 62.1639 208.843 62.688C209.345 63.2007 209.732 63.8729 210.005 64.7046C210.279 65.5249 210.416 66.5104 210.416 67.6611V80H205.494V68.208C205.494 67.3649 205.38 66.7155 205.152 66.2598C204.924 65.804 204.599 65.485 204.178 65.3027C203.768 65.1204 203.272 65.0293 202.691 65.0293C202.053 65.0293 201.495 65.1603 201.016 65.4224C200.549 65.6844 200.162 66.049 199.854 66.5161C199.546 66.9718 199.319 67.5073 199.17 68.1226C199.022 68.7378 198.948 69.3986 198.948 70.105ZM209.954 69.541L208.194 69.7632C208.194 68.5555 208.342 67.4333 208.638 66.3965C208.946 65.3597 209.396 64.4482 209.988 63.6621C210.592 62.876 211.338 62.2664 212.227 61.8335C213.116 61.3892 214.141 61.167 215.303 61.167C216.192 61.167 217.001 61.298 217.73 61.5601C218.459 61.8107 219.08 62.2152 219.593 62.7734C220.117 63.3203 220.516 64.0381 220.789 64.9268C221.074 65.8154 221.216 66.9035 221.216 68.1909V80H216.277V68.1909C216.277 67.3364 216.163 66.687 215.936 66.2427C215.719 65.7869 215.4 65.4736 214.979 65.3027C214.568 65.1204 214.078 65.0293 213.509 65.0293C212.916 65.0293 212.398 65.1489 211.954 65.3882C211.509 65.616 211.139 65.9351 210.843 66.3452C210.547 66.7554 210.324 67.2339 210.176 67.7808C210.028 68.3162 209.954 68.903 209.954 69.541ZM239.178 55.1172V80H234.051V55.1172H239.178ZM254.08 55.1172L244.219 67.4048L238.528 73.5229L237.605 68.6694L241.451 63.4058L247.791 55.1172H254.08ZM248.252 80L240.921 68.4985L244.715 65.3198L254.319 80H248.252ZM265.975 75.8301V67.5928C265.975 67.0003 265.878 66.4933 265.684 66.0718C265.49 65.6388 265.188 65.3027 264.778 65.0635C264.38 64.8242 263.861 64.7046 263.223 64.7046C262.676 64.7046 262.203 64.8014 261.805 64.9951C261.406 65.1774 261.098 65.4451 260.882 65.7983C260.665 66.1401 260.557 66.5446 260.557 67.0117H255.635C255.635 66.2256 255.818 65.4793 256.182 64.7729C256.547 64.0666 257.076 63.4456 257.771 62.9102C258.466 62.3633 259.292 61.936 260.25 61.6284C261.218 61.3208 262.3 61.167 263.497 61.167C264.932 61.167 266.208 61.4062 267.325 61.8848C268.441 62.3633 269.319 63.0811 269.957 64.0381C270.606 64.9951 270.931 66.1914 270.931 67.627V75.5396C270.931 76.5535 270.993 77.3853 271.119 78.0347C271.244 78.6727 271.426 79.231 271.666 79.7095V80H266.692C266.453 79.4987 266.271 78.8721 266.146 78.1201C266.032 77.3568 265.975 76.5934 265.975 75.8301ZM266.624 68.7378L266.658 71.5234H263.907C263.257 71.5234 262.693 71.5975 262.215 71.7456C261.736 71.8937 261.343 72.1045 261.036 72.3779C260.728 72.64 260.5 72.9476 260.352 73.3008C260.215 73.654 260.147 74.0413 260.147 74.4629C260.147 74.8844 260.244 75.2661 260.438 75.6079C260.631 75.9383 260.91 76.2004 261.275 76.394C261.639 76.5763 262.067 76.6675 262.557 76.6675C263.297 76.6675 263.941 76.5194 264.488 76.2231C265.035 75.9269 265.456 75.5623 265.752 75.1294C266.06 74.6965 266.22 74.2863 266.231 73.8989L267.53 75.9839C267.347 76.451 267.097 76.9352 266.778 77.4365C266.47 77.9378 266.077 78.4106 265.599 78.855C265.12 79.2879 264.545 79.6468 263.873 79.9316C263.2 80.2051 262.403 80.3418 261.48 80.3418C260.306 80.3418 259.241 80.1082 258.284 79.6411C257.339 79.1626 256.587 78.5075 256.028 77.6758C255.481 76.8327 255.208 75.8757 255.208 74.8047C255.208 73.8363 255.39 72.9761 255.755 72.2241C256.119 71.4722 256.655 70.8398 257.361 70.3271C258.079 69.8031 258.973 69.41 260.044 69.1479C261.115 68.8745 262.357 68.7378 263.77 68.7378H266.624ZM279.646 53.7329V80H274.725V53.7329H279.646ZM291.302 61.5088L283.27 70.6689L278.963 75.0269L277.168 71.4722L280.586 67.1313L285.389 61.5088H291.302ZM286.192 80L280.723 71.4551L284.124 68.4814L291.866 80H286.192Z" fill="white"/>
<rect x="92" y="181" width="1179" height="80" rx="13.3333" fill="#463F71"/>
<rect x="107" y="196.333" width="208" height="49.3333" rx="4.66667" fill="#FB7785" stroke="#FB7785" stroke-width="4"/>
<path d="M186.844 213.167V228.333H183.198L177.833 218.896V228.333H174.177V213.167H177.833L183.198 222.604V213.167H186.844ZM188.552 222.812V222.594C188.552 221.767 188.67 221.007 188.906 220.312C189.142 219.611 189.49 219.003 189.948 218.49C190.406 217.976 190.972 217.576 191.646 217.292C192.319 217 193.097 216.854 193.979 216.854C194.868 216.854 195.649 217 196.323 217.292C197.003 217.576 197.573 217.976 198.031 218.49C198.49 219.003 198.837 219.611 199.073 220.312C199.309 221.007 199.427 221.767 199.427 222.594V222.812C199.427 223.632 199.309 224.392 199.073 225.094C198.837 225.788 198.49 226.396 198.031 226.917C197.573 227.431 197.007 227.83 196.333 228.115C195.66 228.399 194.882 228.542 194 228.542C193.118 228.542 192.337 228.399 191.656 228.115C190.976 227.83 190.406 227.431 189.948 226.917C189.49 226.396 189.142 225.788 188.906 225.094C188.67 224.392 188.552 223.632 188.552 222.812ZM192.062 222.594V222.812C192.062 223.236 192.094 223.632 192.156 224C192.219 224.368 192.323 224.691 192.469 224.969C192.615 225.24 192.812 225.451 193.062 225.604C193.312 225.757 193.625 225.833 194 225.833C194.368 225.833 194.674 225.757 194.917 225.604C195.167 225.451 195.365 225.24 195.51 224.969C195.656 224.691 195.76 224.368 195.823 224C195.885 223.632 195.917 223.236 195.917 222.812V222.594C195.917 222.184 195.885 221.799 195.823 221.437C195.76 221.069 195.656 220.747 195.51 220.469C195.365 220.184 195.167 219.962 194.917 219.802C194.667 219.642 194.354 219.562 193.979 219.562C193.611 219.562 193.302 219.642 193.052 219.802C192.809 219.962 192.615 220.184 192.469 220.469C192.323 220.747 192.219 221.069 192.156 221.437C192.094 221.799 192.062 222.184 192.062 222.594ZM207.469 225.75V212.333H211V228.333H207.833L207.469 225.75ZM200.552 222.833V222.615C200.552 221.76 200.646 220.983 200.833 220.281C201.021 219.573 201.299 218.965 201.667 218.458C202.035 217.944 202.493 217.549 203.042 217.271C203.59 216.993 204.222 216.854 204.938 216.854C205.576 216.854 206.135 217.003 206.615 217.302C207.094 217.594 207.503 218.003 207.844 218.531C208.184 219.059 208.462 219.677 208.677 220.385C208.892 221.087 209.056 221.844 209.167 222.656V222.917C209.056 223.681 208.892 224.403 208.677 225.083C208.462 225.757 208.184 226.354 207.844 226.875C207.503 227.396 207.09 227.806 206.604 228.104C206.125 228.396 205.563 228.542 204.917 228.542C204.201 228.542 203.569 228.399 203.021 228.115C202.479 227.83 202.024 227.431 201.656 226.917C201.295 226.403 201.021 225.799 200.833 225.104C200.646 224.41 200.552 223.653 200.552 222.833ZM204.063 222.615V222.833C204.063 223.257 204.09 223.649 204.146 224.01C204.201 224.372 204.295 224.691 204.427 224.969C204.566 225.24 204.747 225.451 204.969 225.604C205.198 225.757 205.479 225.833 205.813 225.833C206.264 225.833 206.635 225.726 206.927 225.51C207.226 225.295 207.444 224.99 207.583 224.594C207.729 224.198 207.792 223.733 207.771 223.198V222.375C207.785 221.917 207.753 221.514 207.677 221.167C207.601 220.812 207.479 220.517 207.313 220.281C207.153 220.045 206.948 219.868 206.698 219.75C206.455 219.625 206.167 219.562 205.833 219.562C205.507 219.562 205.229 219.639 205 219.792C204.778 219.944 204.597 220.16 204.458 220.437C204.319 220.708 204.219 221.031 204.156 221.406C204.094 221.774 204.063 222.177 204.063 222.615ZM218.448 228.542C217.531 228.542 216.712 228.399 215.99 228.115C215.267 227.823 214.656 227.424 214.156 226.917C213.663 226.41 213.285 225.826 213.021 225.167C212.764 224.507 212.635 223.809 212.635 223.073V222.677C212.635 221.851 212.75 221.087 212.979 220.385C213.208 219.677 213.549 219.059 214 218.531C214.451 218.003 215.017 217.594 215.698 217.302C216.378 217.003 217.17 216.854 218.073 216.854C218.872 216.854 219.587 216.983 220.219 217.24C220.851 217.497 221.385 217.865 221.823 218.344C222.267 218.823 222.604 219.403 222.833 220.083C223.069 220.764 223.188 221.528 223.188 222.375V223.802H213.979V221.604H219.76V221.333C219.767 220.958 219.701 220.639 219.563 220.375C219.431 220.111 219.236 219.91 218.979 219.771C218.722 219.632 218.41 219.562 218.042 219.562C217.66 219.562 217.344 219.646 217.094 219.812C216.851 219.979 216.66 220.208 216.521 220.5C216.389 220.785 216.295 221.115 216.24 221.49C216.184 221.865 216.156 222.26 216.156 222.677V223.073C216.156 223.49 216.212 223.868 216.323 224.208C216.441 224.549 216.608 224.84 216.823 225.083C217.045 225.319 217.309 225.503 217.615 225.635C217.927 225.767 218.281 225.833 218.677 225.833C219.156 225.833 219.628 225.743 220.094 225.562C220.559 225.382 220.958 225.083 221.292 224.667L222.885 226.562C222.656 226.889 222.33 227.205 221.906 227.51C221.49 227.816 220.99 228.066 220.406 228.26C219.823 228.448 219.17 228.542 218.448 228.542ZM230.813 223.573V213.167H234.458V223.573C234.458 224.587 234.226 225.465 233.76 226.208C233.302 226.951 232.677 227.528 231.885 227.937C231.101 228.34 230.219 228.542 229.24 228.542C228.226 228.542 227.323 228.372 226.531 228.031C225.747 227.691 225.128 227.167 224.677 226.458C224.233 225.75 224.01 224.847 224.01 223.75H227.677C227.677 224.264 227.736 224.667 227.854 224.958C227.972 225.243 228.146 225.444 228.375 225.562C228.611 225.674 228.899 225.729 229.24 225.729C229.573 225.729 229.854 225.646 230.083 225.479C230.319 225.306 230.5 225.059 230.625 224.74C230.75 224.413 230.813 224.024 230.813 223.573ZM244.594 224.302C244.594 224.066 244.559 223.854 244.49 223.667C244.42 223.472 244.292 223.292 244.104 223.125C243.917 222.958 243.646 222.792 243.292 222.625C242.944 222.451 242.486 222.271 241.917 222.083C241.25 221.861 240.608 221.611 239.99 221.333C239.372 221.049 238.819 220.719 238.333 220.344C237.847 219.962 237.462 219.517 237.177 219.01C236.892 218.497 236.75 217.899 236.75 217.219C236.75 216.566 236.896 215.979 237.188 215.458C237.479 214.931 237.885 214.483 238.406 214.115C238.934 213.74 239.552 213.455 240.26 213.26C240.969 213.059 241.743 212.958 242.583 212.958C243.694 212.958 244.674 213.153 245.521 213.542C246.375 213.924 247.042 214.469 247.521 215.177C248.007 215.878 248.25 216.708 248.25 217.667H244.615C244.615 217.285 244.535 216.948 244.375 216.656C244.222 216.365 243.99 216.135 243.677 215.969C243.365 215.802 242.972 215.719 242.5 215.719C242.042 215.719 241.656 215.788 241.344 215.927C241.031 216.066 240.795 216.253 240.635 216.49C240.476 216.719 240.396 216.972 240.396 217.25C240.396 217.479 240.458 217.687 240.583 217.875C240.715 218.056 240.899 218.226 241.135 218.385C241.378 218.545 241.67 218.698 242.01 218.844C242.358 218.99 242.747 219.132 243.177 219.271C243.983 219.528 244.698 219.816 245.323 220.135C245.955 220.448 246.486 220.806 246.917 221.208C247.354 221.604 247.684 222.056 247.906 222.562C248.135 223.069 248.25 223.642 248.25 224.281C248.25 224.962 248.118 225.566 247.854 226.094C247.59 226.622 247.212 227.069 246.719 227.437C246.226 227.799 245.635 228.073 244.948 228.26C244.26 228.448 243.493 228.542 242.646 228.542C241.868 228.542 241.101 228.444 240.344 228.25C239.594 228.049 238.913 227.743 238.302 227.333C237.691 226.917 237.201 226.385 236.833 225.74C236.472 225.087 236.292 224.312 236.292 223.417H239.958C239.958 223.861 240.017 224.236 240.135 224.542C240.253 224.847 240.427 225.094 240.656 225.281C240.885 225.462 241.167 225.594 241.5 225.677C241.833 225.753 242.215 225.792 242.646 225.792C243.111 225.792 243.486 225.726 243.771 225.594C244.056 225.455 244.264 225.274 244.396 225.052C244.528 224.823 244.594 224.573 244.594 224.302Z" fill="white"/>
<rect x="339" y="196.333" width="208" height="49.3333" rx="4.66667" fill="#FB7785" stroke="#FB7785" stroke-width="4"/>
<path d="M382.833 213.167H388.802C389.969 213.167 390.983 213.34 391.844 213.687C392.705 214.035 393.368 214.549 393.833 215.229C394.306 215.91 394.542 216.75 394.542 217.75C394.542 218.618 394.406 219.344 394.135 219.927C393.865 220.51 393.486 220.993 393 221.375C392.521 221.75 391.962 222.059 391.323 222.302L390.125 222.979H385.115L385.094 220.156H388.802C389.267 220.156 389.653 220.073 389.958 219.906C390.264 219.74 390.493 219.503 390.646 219.198C390.806 218.885 390.885 218.514 390.885 218.083C390.885 217.646 390.806 217.271 390.646 216.958C390.486 216.646 390.25 216.406 389.937 216.24C389.632 216.073 389.253 215.99 388.802 215.99H386.49V228.333H382.833V213.167ZM391.135 228.333L387.781 221.625L391.656 221.604L395.052 228.177V228.333H391.135ZM402.042 228.542C401.125 228.542 400.306 228.399 399.583 228.115C398.861 227.823 398.25 227.424 397.75 226.917C397.257 226.41 396.878 225.826 396.615 225.167C396.358 224.507 396.229 223.809 396.229 223.073V222.677C396.229 221.851 396.344 221.087 396.573 220.385C396.802 219.677 397.142 219.059 397.594 218.531C398.045 218.003 398.611 217.594 399.292 217.302C399.972 217.003 400.764 216.854 401.667 216.854C402.465 216.854 403.181 216.983 403.813 217.24C404.444 217.497 404.979 217.865 405.417 218.344C405.861 218.823 406.198 219.403 406.427 220.083C406.663 220.764 406.781 221.528 406.781 222.375V223.802H397.573V221.604H403.354V221.333C403.361 220.958 403.295 220.639 403.156 220.375C403.024 220.111 402.83 219.91 402.573 219.771C402.316 219.632 402.003 219.562 401.635 219.562C401.253 219.562 400.938 219.646 400.688 219.812C400.444 219.979 400.253 220.208 400.115 220.5C399.983 220.785 399.889 221.115 399.833 221.49C399.778 221.865 399.75 222.26 399.75 222.677V223.073C399.75 223.49 399.806 223.868 399.917 224.208C400.035 224.549 400.201 224.84 400.417 225.083C400.639 225.319 400.903 225.503 401.208 225.635C401.521 225.767 401.875 225.833 402.271 225.833C402.75 225.833 403.222 225.743 403.688 225.562C404.153 225.382 404.552 225.083 404.885 224.667L406.479 226.562C406.25 226.889 405.924 227.205 405.5 227.51C405.083 227.816 404.583 228.066 404 228.26C403.417 228.448 402.764 228.542 402.042 228.542ZM414.063 225.5V220.854C414.063 220.535 414.017 220.26 413.927 220.031C413.837 219.802 413.694 219.625 413.5 219.5C413.306 219.368 413.045 219.302 412.719 219.302C412.455 219.302 412.229 219.347 412.042 219.437C411.854 219.528 411.712 219.663 411.615 219.844C411.517 220.024 411.469 220.253 411.469 220.531H407.958C407.958 220.01 408.073 219.528 408.302 219.083C408.538 218.632 408.872 218.24 409.302 217.906C409.74 217.573 410.26 217.316 410.865 217.135C411.476 216.948 412.156 216.854 412.906 216.854C413.802 216.854 414.601 217.003 415.302 217.302C416.01 217.601 416.569 218.049 416.979 218.646C417.389 219.236 417.594 219.979 417.594 220.875V225.49C417.594 226.226 417.635 226.785 417.719 227.167C417.802 227.542 417.92 227.872 418.073 228.156V228.333H414.552C414.385 227.986 414.26 227.562 414.177 227.062C414.101 226.556 414.063 226.035 414.063 225.5ZM414.49 221.448L414.51 223.323H412.958C412.632 223.323 412.354 223.368 412.125 223.458C411.903 223.549 411.722 223.674 411.583 223.833C411.451 223.986 411.354 224.16 411.292 224.354C411.236 224.549 411.208 224.753 411.208 224.969C411.208 225.177 411.257 225.365 411.354 225.531C411.458 225.691 411.597 225.816 411.771 225.906C411.944 225.997 412.139 226.042 412.354 226.042C412.743 226.042 413.073 225.969 413.344 225.823C413.622 225.67 413.833 225.486 413.979 225.271C414.125 225.056 414.198 224.854 414.198 224.667L414.969 226.104C414.83 226.382 414.67 226.663 414.49 226.948C414.316 227.233 414.097 227.497 413.833 227.74C413.576 227.976 413.26 228.17 412.885 228.323C412.51 228.469 412.056 228.542 411.521 228.542C410.826 228.542 410.188 228.399 409.604 228.115C409.028 227.83 408.566 227.434 408.219 226.927C407.872 226.413 407.698 225.823 407.698 225.156C407.698 224.573 407.802 224.052 408.01 223.594C408.226 223.135 408.549 222.747 408.979 222.427C409.41 222.108 409.958 221.865 410.625 221.698C411.292 221.531 412.076 221.448 412.979 221.448H414.49ZM424.302 225.833C424.628 225.833 424.906 225.774 425.135 225.656C425.372 225.531 425.549 225.358 425.667 225.135C425.792 224.906 425.851 224.632 425.844 224.312H429.146C429.153 225.16 428.944 225.903 428.521 226.542C428.104 227.174 427.535 227.667 426.812 228.021C426.097 228.368 425.288 228.542 424.385 228.542C423.503 228.542 422.733 228.399 422.073 228.115C421.413 227.823 420.861 227.42 420.417 226.906C419.979 226.385 419.649 225.778 419.427 225.083C419.212 224.389 419.104 223.635 419.104 222.823V222.583C419.104 221.771 419.212 221.017 419.427 220.323C419.649 219.622 419.979 219.014 420.417 218.5C420.861 217.979 421.41 217.576 422.062 217.292C422.722 217 423.49 216.854 424.365 216.854C425.302 216.854 426.128 217.031 426.844 217.385C427.566 217.74 428.132 218.253 428.542 218.927C428.951 219.601 429.153 220.417 429.146 221.375H425.844C425.851 221.035 425.799 220.729 425.687 220.458C425.576 220.187 425.403 219.972 425.167 219.812C424.937 219.646 424.642 219.562 424.281 219.562C423.92 219.562 423.628 219.642 423.406 219.802C423.184 219.962 423.014 220.184 422.896 220.469C422.785 220.747 422.708 221.066 422.667 221.427C422.632 221.788 422.615 222.174 422.615 222.583V222.823C422.615 223.24 422.632 223.632 422.667 224C422.708 224.361 422.788 224.681 422.906 224.958C423.024 225.229 423.194 225.444 423.417 225.604C423.639 225.757 423.934 225.833 424.302 225.833ZM436.583 217.062V219.5H429.792V217.062H436.583ZM431.219 214.26H434.729V224.656C434.729 224.955 434.764 225.187 434.833 225.354C434.903 225.514 435.021 225.628 435.188 225.698C435.361 225.76 435.59 225.792 435.875 225.792C436.076 225.792 436.243 225.788 436.375 225.781C436.507 225.767 436.632 225.75 436.75 225.729V228.24C436.451 228.337 436.139 228.41 435.813 228.458C435.486 228.514 435.139 228.542 434.771 228.542C434.021 228.542 433.378 228.424 432.844 228.187C432.316 227.951 431.913 227.58 431.635 227.073C431.358 226.566 431.219 225.906 431.219 225.094V214.26ZM456.125 213.167V228.333H452.479L447.115 218.896V228.333H443.458V213.167H447.115L452.479 222.604V213.167H456.125ZM464.125 225.5V220.854C464.125 220.535 464.08 220.26 463.99 220.031C463.899 219.802 463.757 219.625 463.563 219.5C463.368 219.368 463.108 219.302 462.781 219.302C462.517 219.302 462.292 219.347 462.104 219.437C461.917 219.528 461.774 219.663 461.677 219.844C461.58 220.024 461.531 220.253 461.531 220.531H458.021C458.021 220.01 458.135 219.528 458.365 219.083C458.601 218.632 458.934 218.24 459.365 217.906C459.802 217.573 460.323 217.316 460.927 217.135C461.538 216.948 462.219 216.854 462.969 216.854C463.865 216.854 464.663 217.003 465.365 217.302C466.073 217.601 466.632 218.049 467.042 218.646C467.451 219.236 467.656 219.979 467.656 220.875V225.49C467.656 226.226 467.698 226.785 467.781 227.167C467.865 227.542 467.983 227.872 468.135 228.156V228.333H464.615C464.448 227.986 464.323 227.562 464.24 227.062C464.163 226.556 464.125 226.035 464.125 225.5ZM464.552 221.448L464.573 223.323H463.021C462.694 223.323 462.417 223.368 462.188 223.458C461.965 223.549 461.785 223.674 461.646 223.833C461.514 223.986 461.417 224.16 461.354 224.354C461.299 224.549 461.271 224.753 461.271 224.969C461.271 225.177 461.319 225.365 461.417 225.531C461.521 225.691 461.66 225.816 461.833 225.906C462.007 225.997 462.201 226.042 462.417 226.042C462.806 226.042 463.135 225.969 463.406 225.823C463.684 225.67 463.896 225.486 464.042 225.271C464.188 225.056 464.26 224.854 464.26 224.667L465.031 226.104C464.892 226.382 464.733 226.663 464.552 226.948C464.378 227.233 464.16 227.497 463.896 227.74C463.639 227.976 463.323 228.17 462.948 228.323C462.573 228.469 462.118 228.542 461.583 228.542C460.889 228.542 460.25 228.399 459.667 228.115C459.09 227.83 458.628 227.434 458.281 226.927C457.934 226.413 457.76 225.823 457.76 225.156C457.76 224.573 457.865 224.052 458.073 223.594C458.288 223.135 458.611 222.747 459.042 222.427C459.472 222.108 460.021 221.865 460.688 221.698C461.354 221.531 462.139 221.448 463.042 221.448H464.552ZM475.542 217.062V219.5H468.75V217.062H475.542ZM470.177 214.26H473.687V224.656C473.687 224.955 473.722 225.187 473.792 225.354C473.861 225.514 473.979 225.628 474.146 225.698C474.319 225.76 474.549 225.792 474.833 225.792C475.035 225.792 475.201 225.788 475.333 225.781C475.465 225.767 475.59 225.75 475.708 225.729V228.24C475.41 228.337 475.097 228.41 474.771 228.458C474.444 228.514 474.097 228.542 473.729 228.542C472.979 228.542 472.337 228.424 471.802 228.187C471.274 227.951 470.872 227.58 470.594 227.073C470.316 226.566 470.177 225.906 470.177 225.094V214.26ZM480.646 217.062V228.333H477.125V217.062H480.646ZM476.917 214.156C476.917 213.656 477.097 213.247 477.458 212.927C477.819 212.608 478.288 212.448 478.865 212.448C479.441 212.448 479.91 212.608 480.271 212.927C480.632 213.247 480.813 213.656 480.813 214.156C480.813 214.656 480.632 215.066 480.271 215.385C479.91 215.705 479.441 215.865 478.865 215.865C478.288 215.865 477.819 215.705 477.458 215.385C477.097 215.066 476.917 214.656 476.917 214.156ZM486.875 225.927L489.094 217.062H492.792L489.104 228.333H486.917L486.875 225.927ZM485.563 217.062L487.75 225.927L487.729 228.333H485.531L481.854 217.062H485.563ZM499.146 228.542C498.229 228.542 497.41 228.399 496.688 228.115C495.965 227.823 495.354 227.424 494.854 226.917C494.361 226.41 493.983 225.826 493.719 225.167C493.462 224.507 493.333 223.809 493.333 223.073V222.677C493.333 221.851 493.448 221.087 493.677 220.385C493.906 219.677 494.247 219.059 494.698 218.531C495.149 218.003 495.715 217.594 496.396 217.302C497.076 217.003 497.868 216.854 498.771 216.854C499.569 216.854 500.285 216.983 500.917 217.24C501.549 217.497 502.083 217.865 502.521 218.344C502.965 218.823 503.302 219.403 503.531 220.083C503.767 220.764 503.885 221.528 503.885 222.375V223.802H494.677V221.604H500.458V221.333C500.465 220.958 500.399 220.639 500.26 220.375C500.128 220.111 499.934 219.91 499.677 219.771C499.42 219.632 499.108 219.562 498.74 219.562C498.358 219.562 498.042 219.646 497.792 219.812C497.549 219.979 497.358 220.208 497.219 220.5C497.087 220.785 496.993 221.115 496.938 221.49C496.882 221.865 496.854 222.26 496.854 222.677V223.073C496.854 223.49 496.91 223.868 497.021 224.208C497.139 224.549 497.306 224.84 497.521 225.083C497.743 225.319 498.007 225.503 498.313 225.635C498.625 225.767 498.979 225.833 499.375 225.833C499.854 225.833 500.326 225.743 500.792 225.562C501.257 225.382 501.656 225.083 501.99 224.667L503.583 226.562C503.354 226.889 503.028 227.205 502.604 227.51C502.188 227.816 501.688 228.066 501.104 228.26C500.521 228.448 499.868 228.542 499.146 228.542Z" fill="white"/>
</g>
<defs>
<clipPath id="clip0_3_60">
<rect width="1363" height="301" fill="white"/>
</clipPath>
</defs>
</svg>
